<?xml version="1.0" encoding="UTF-8"?>
<svg id="Layer_1" data-name="Layer 1" xmlns="http://www.w3.org/2000/svg" viewBox="0 0 32 32">
  <defs>
    <style>
      .cls-1 {
        fill: #fff;
      }

      .cls-2 {
        fill: #5c5c5c;
      }
    </style>
  </defs>
  <rect class="cls-1" width="32" height="32"/>
  <path class="cls-2" d="m11.39,14.01c-.36,0-.64-.16-.82-.48-.18-.32-.17-.64.04-.95l4.66-7.53c.16-.29.42-.44.77-.43.35,0,.62.15.81.45l4.65,7.51c.2.31.2.63.02.95-.19.32-.46.48-.81.48h-9.32Zm12.08,14.75c-1.5,0-2.75-.51-3.76-1.52-1.01-1.02-1.52-2.27-1.52-3.77s.51-2.75,1.52-3.76c1.01-1.01,2.27-1.52,3.76-1.52s2.75.51,3.77,1.52,1.52,2.27,1.52,3.76-.51,2.75-1.52,3.77c-1.02,1.02-2.27,1.52-3.77,1.52Zm-17.92-.79c-.28,0-.5-.09-.67-.26-.17-.17-.26-.4-.26-.67v-7.28c0-.27.09-.49.26-.66.17-.18.4-.26.67-.26h7.28c.27,0,.5.09.67.27.17.18.26.4.26.67v7.28c0,.27-.09.5-.26.67-.17.17-.4.26-.67.26h-7.28Zm17.93-.67c1.07,0,1.97-.37,2.71-1.12.74-.74,1.11-1.65,1.11-2.72s-.37-1.97-1.12-2.71c-.74-.74-1.65-1.11-2.72-1.11s-1.97.37-2.71,1.11c-.74.74-1.11,1.65-1.11,2.72s.37,1.97,1.11,2.71c.74.74,1.65,1.11,2.72,1.11Zm-17.4-.79h6.21v-6.21h-6.21v6.21Zm6.25-13.96h7.44l-3.72-5.97-3.72,5.97Z"/>
</svg>