<?xml version="1.0" encoding="UTF-8"?>
<svg id="Layer_1" data-name="Layer 1" xmlns="http://www.w3.org/2000/svg" viewBox="0 0 32 32">
  <defs>
    <style>
      .cls-1 {
        fill: #fff;
      }

      .cls-2 {
        fill: #5c5c5c;
      }
    </style>
  </defs>
  <rect class="cls-1" width="32" height="32"/>
  <path class="cls-2" d="m14.02,21.99c0,.36-.16.64-.48.82-.32.18-.64.17-.95-.04l-7.53-4.66c-.29-.16-.44-.42-.43-.77,0-.35.15-.62.45-.81l7.51-4.65c.31-.2.63-.2.95-.02.32.19.48.46.48.81v9.32Zm14.75-12.08c0,1.5-.51,2.75-1.52,3.76-1.02,1.01-2.27,1.52-3.77,1.52s-2.75-.51-3.76-1.52c-1.01-1.01-1.52-2.27-1.52-3.76s.51-2.75,1.52-3.77c1.01-1.02,2.27-1.52,3.76-1.52s2.75.51,3.77,1.52c1.02,1.02,1.52,2.27,1.52,3.77Zm-.79,17.92c0,.27-.09.5-.26.67-.17.17-.4.26-.67.26h-7.28c-.27,0-.49-.09-.66-.26-.18-.17-.26-.4-.26-.67v-7.28c0-.28.09-.5.27-.67.18-.17.4-.26.67-.26h7.28c.27,0,.5.09.67.26.17.17.26.4.26.67v7.28Zm-.67-17.93c0-1.07-.37-1.97-1.12-2.71s-1.65-1.11-2.72-1.11-1.97.37-2.71,1.12c-.74.74-1.11,1.65-1.11,2.72s.37,1.97,1.11,2.71c.74.74,1.65,1.11,2.72,1.11s1.97-.37,2.71-1.11c.74-.74,1.11-1.65,1.11-2.72Zm-.79,17.4v-6.21h-6.21v6.21h6.21Zm-13.96-6.25v-7.44l-5.97,3.72,5.97,3.72Z"/>
</svg>