<?xml version="1.0" encoding="UTF-8"?>
<svg id="Layer_1" data-name="Layer 1" xmlns="http://www.w3.org/2000/svg" viewBox="0 0 32 32">
  <defs>
    <style>
      .cls-1 {
        fill: #fff;
      }

      .cls-2 {
        fill: #5c5c5c;
      }
    </style>
  </defs>
  <rect class="cls-1" width="32" height="32"/>
  <path class="cls-2" d="m22,19.36c.36,0,.64.16.82.48.18.32.17.64-.04.95l-4.66,7.53c-.16.29-.42.44-.77.43-.35,0-.62-.15-.81-.45l-4.65-7.51c-.2-.31-.2-.63-.02-.95.19-.32.46-.48.81-.48h9.32ZM9.92,4.61c1.5,0,2.75.51,3.76,1.52s1.52,2.27,1.52,3.77-.51,2.75-1.52,3.76c-1.01,1.01-2.27,1.52-3.76,1.52s-2.75-.51-3.77-1.52c-1.02-1.01-1.52-2.27-1.52-3.76s.51-2.75,1.52-3.77c1.02-1.02,2.27-1.52,3.77-1.52Zm17.92.79c.27,0,.5.09.67.26.17.17.26.4.26.67v7.28c0,.27-.09.49-.26.66-.17.18-.4.26-.67.26h-7.28c-.27,0-.5-.09-.67-.27-.17-.18-.26-.4-.26-.67v-7.28c0-.27.09-.5.26-.67.17-.17.4-.26.67-.26h7.28Zm-17.93.67c-1.07,0-1.97.37-2.71,1.12-.74.74-1.11,1.65-1.11,2.72s.37,1.97,1.12,2.71c.74.74,1.65,1.11,2.72,1.11s1.97-.37,2.71-1.11,1.11-1.65,1.11-2.72-.37-1.97-1.11-2.71c-.74-.74-1.65-1.11-2.72-1.11Zm17.4.79h-6.21v6.21h6.21v-6.21Zm-6.25,13.96h-7.44l3.72,5.97,3.72-5.97Z"/>
</svg>